<svg width="50" height="40" viewBox="0 0 50 40" fill="none" xmlns="http://www.w3.org/2000/svg">
<g id="Frame 4">
<g id="gmail">
<path id="Vector" d="M38.7528 3.58337L25.1457 14.5773L11.2276 3.58337V3.58634L11.2444 3.6012V18.9957L24.9888 30.2273L38.7528 19.4295V3.58337Z" fill="#24292F"/>
<path id="Vector_2" d="M42.3262 0.909142L38.7528 3.58334V19.4295L49.9972 10.4917V5.10764C49.9972 5.10764 48.6323 -2.58217 42.3262 0.909142Z" fill="#24292F"/>
<path id="Vector_3" d="M38.7528 19.4294V39.9821H47.3711C47.3711 39.9821 49.8234 39.7207 50 36.8266V10.4917L38.7528 19.4294Z" fill="#24292F"/>
<path id="Vector_4" d="M11.2444 40V18.9956L11.2276 18.9808L11.2444 40Z" fill="#24292F"/>
<path id="Vector_5" d="M11.2276 3.58627L7.67377 0.926927C1.36771 -2.56439 0 5.12245 0 5.12245V10.5065L11.2276 18.9807V3.58627Z" fill="#24292F"/>
<path id="Vector_6" d="M11.2276 3.5863V18.9808L11.2444 18.9956V3.60116L11.2276 3.5863Z" fill="#24292F"/>
<path id="Vector_7" d="M0 10.5095V36.8444C0.173767 39.7415 2.62892 40 2.62892 40H11.2472L11.2276 18.9808L0 10.5095Z" fill="#24292F"/>
</g>
</g>
</svg>
