<svg width="30" height="40" viewBox="0 0 30 40" fill="none" xmlns="http://www.w3.org/2000/svg">
<g clip-path="url(#clip0_38_34)">
<path d="M5 0C2.24219 0 0 2.24219 0 5V35C0 37.7578 2.24219 40 5 40H25C27.7578 40 30 37.7578 30 35V12.5H20C18.6172 12.5 17.5 11.3828 17.5 10V0H5ZM20 0V10H30L20 0ZM8.75 20H21.25C21.9375 20 22.5 20.5625 22.5 21.25C22.5 21.9375 21.9375 22.5 21.25 22.5H8.75C8.0625 22.5 7.5 21.9375 7.5 21.25C7.5 20.5625 8.0625 20 8.75 20ZM8.75 25H21.25C21.9375 25 22.5 25.5625 22.5 26.25C22.5 26.9375 21.9375 27.5 21.25 27.5H8.75C8.0625 27.5 7.5 26.9375 7.5 26.25C7.5 25.5625 8.0625 25 8.75 25ZM8.75 30H21.25C21.9375 30 22.5 30.5625 22.5 31.25C22.5 31.9375 21.9375 32.5 21.25 32.5H8.75C8.0625 32.5 7.5 31.9375 7.5 31.25C7.5 30.5625 8.0625 30 8.75 30Z" fill="white"/>
</g>
<defs>
<clipPath id="clip0_38_34">
<rect width="30" height="40" fill="white"/>
</clipPath>
</defs>
</svg>
